<svg width="436" height="288" viewBox="0 0 436 288" fill="none" xmlns="http://www.w3.org/2000/svg">
<path d="M124.2 122.553C124.2 153.011 96.3969 177.702 62.1 177.702C27.8031 177.702 0 153.011 0 122.553C0 92.0953 27.8031 67.4042 62.1 67.4042C96.3969 67.4042 124.2 92.0953 124.2 122.553Z" fill="url(#paint0_linear_9_2)"/>
<path d="M422.7 191.5C422.7 221.958 394.897 246.649 360.6 246.649C326.303 246.649 298.5 221.958 298.5 191.5C298.5 161.042 326.303 136.351 360.6 136.351C394.897 136.351 422.7 161.042 422.7 191.5Z" fill="url(#paint1_linear_9_2)"/>
<ellipse cx="66.3" cy="185.872" rx="62.1" ry="55.1489" fill="url(#paint2_linear_9_2)"/>
<ellipse cx="146.8" cy="204.255" rx="62.1" ry="55.1489" fill="url(#paint3_linear_9_2)"/>
<ellipse cx="218.1" cy="232.851" rx="62.1" ry="55.1489" fill="url(#paint4_linear_9_2)"/>
<ellipse cx="271" cy="204.255" rx="62.1" ry="55.1489" fill="url(#paint5_linear_9_2)"/>
<ellipse cx="333.1" cy="149.106" rx="62.1" ry="55.1489" fill="url(#paint6_linear_9_2)"/>
<path d="M435.4 108C435.4 138.458 407.597 163.149 373.3 163.149C339.003 163.149 311.2 138.458 311.2 108C311.2 77.5421 339.003 52.8511 373.3 52.8511C407.597 52.8511 435.4 77.5421 435.4 108Z" fill="url(#paint7_linear_9_2)"/>
<ellipse cx="294" cy="75.5745" rx="62.1" ry="55.1489" fill="url(#paint8_linear_9_2)"/>
<ellipse cx="231.9" cy="55.1489" rx="62.1" ry="55.1489" fill="url(#paint9_linear_9_2)"/>
<ellipse cx="146.8" cy="75.5745" rx="62.1" ry="55.1489" fill="url(#paint10_linear_9_2)"/>
<path d="M217.3 139.851C217.3 170.309 189.497 195 155.2 195C120.903 195 93.1 170.309 93.1 139.851C93.1 109.393 120.903 84.7021 155.2 84.7021C189.497 84.7021 217.3 109.393 217.3 139.851Z" fill="url(#paint11_linear_9_2)"/>
<path d="M327.8 121.847C327.8 152.305 299.997 176.996 265.7 176.996C231.403 176.996 203.6 152.305 203.6 121.847C203.6 91.3888 231.403 66.6978 265.7 66.6978C299.997 66.6978 327.8 91.3888 327.8 121.847Z" fill="url(#paint12_linear_9_2)"/>
<path d="M237.8 169.851C237.8 200.309 209.997 225 175.7 225C141.403 225 113.6 200.309 113.6 169.851C113.6 139.393 141.403 114.702 175.7 114.702C209.997 114.702 237.8 139.393 237.8 169.851Z" fill="url(#paint13_linear_9_2)"/>
<defs>
<linearGradient id="paint0_linear_9_2" x1="93.9" y1="67.4042" x2="93.9" y2="177.702" gradientUnits="userSpaceOnUse">
<stop stop-color="white"/>
<stop offset="0.423077" stop-color="white" stop-opacity="0"/>
<stop offset="1" stop-color="white" stop-opacity="0"/>
</linearGradient>
<linearGradient id="paint1_linear_9_2" x1="333.1" y1="149.106" x2="333.1" y2="259.404" gradientUnits="userSpaceOnUse">
<stop stop-color="white"/>
<stop offset="0.423077" stop-color="white" stop-opacity="0"/>
<stop offset="1" stop-color="white" stop-opacity="0"/>
</linearGradient>
<linearGradient id="paint2_linear_9_2" x1="66.3" y1="130.723" x2="66.3" y2="241.021" gradientUnits="userSpaceOnUse">
<stop stop-color="white"/>
<stop offset="0.423077" stop-color="white" stop-opacity="0"/>
<stop offset="1" stop-color="white" stop-opacity="0"/>
</linearGradient>
<linearGradient id="paint3_linear_9_2" x1="146.8" y1="149.106" x2="146.8" y2="259.404" gradientUnits="userSpaceOnUse">
<stop stop-color="white"/>
<stop offset="0.423077" stop-color="white" stop-opacity="0"/>
<stop offset="1" stop-color="white" stop-opacity="0"/>
</linearGradient>
<linearGradient id="paint4_linear_9_2" x1="218.1" y1="177.702" x2="218.1" y2="288" gradientUnits="userSpaceOnUse">
<stop stop-color="white"/>
<stop offset="0.423077" stop-color="white" stop-opacity="0"/>
<stop offset="1" stop-color="white" stop-opacity="0"/>
</linearGradient>
<linearGradient id="paint5_linear_9_2" x1="271" y1="149.106" x2="271" y2="259.404" gradientUnits="userSpaceOnUse">
<stop stop-color="white"/>
<stop offset="0.423077" stop-color="white" stop-opacity="0"/>
<stop offset="1" stop-color="white" stop-opacity="0"/>
</linearGradient>
<linearGradient id="paint6_linear_9_2" x1="333.1" y1="93.9574" x2="333.1" y2="204.255" gradientUnits="userSpaceOnUse">
<stop stop-color="white"/>
<stop offset="0.423077" stop-color="white" stop-opacity="0"/>
<stop offset="1" stop-color="white" stop-opacity="0"/>
</linearGradient>
<linearGradient id="paint7_linear_9_2" x1="356.1" y1="38.8085" x2="356.1" y2="149.106" gradientUnits="userSpaceOnUse">
<stop stop-color="white"/>
<stop offset="0.423077" stop-color="white" stop-opacity="0"/>
<stop offset="1" stop-color="white" stop-opacity="0"/>
</linearGradient>
<linearGradient id="paint8_linear_9_2" x1="294" y1="20.4255" x2="294" y2="130.723" gradientUnits="userSpaceOnUse">
<stop stop-color="white"/>
<stop offset="0.423077" stop-color="white" stop-opacity="0"/>
<stop offset="1" stop-color="white" stop-opacity="0"/>
</linearGradient>
<linearGradient id="paint9_linear_9_2" x1="231.9" y1="0" x2="231.9" y2="110.298" gradientUnits="userSpaceOnUse">
<stop stop-color="white"/>
<stop offset="0.423077" stop-color="white" stop-opacity="0"/>
<stop offset="1" stop-color="white" stop-opacity="0"/>
</linearGradient>
<linearGradient id="paint10_linear_9_2" x1="146.8" y1="20.4255" x2="146.8" y2="130.723" gradientUnits="userSpaceOnUse">
<stop stop-color="white"/>
<stop offset="0.423077" stop-color="white" stop-opacity="0"/>
<stop offset="1" stop-color="white" stop-opacity="0"/>
</linearGradient>
<linearGradient id="paint11_linear_9_2" x1="169.8" y1="67.4042" x2="169.8" y2="177.702" gradientUnits="userSpaceOnUse">
<stop stop-color="white"/>
<stop offset="0.423077" stop-color="white" stop-opacity="0"/>
<stop offset="1" stop-color="white" stop-opacity="0"/>
</linearGradient>
<linearGradient id="paint12_linear_9_2" x1="231.9" y1="75.5745" x2="231.9" y2="185.872" gradientUnits="userSpaceOnUse">
<stop stop-color="white"/>
<stop offset="0.423077" stop-color="white" stop-opacity="0"/>
<stop offset="1" stop-color="white" stop-opacity="0"/>
</linearGradient>
<linearGradient id="paint13_linear_9_2" x1="218.1" y1="110.298" x2="218.1" y2="220.596" gradientUnits="userSpaceOnUse">
<stop stop-color="white"/>
<stop offset="0.423077" stop-color="white" stop-opacity="0"/>
<stop offset="1" stop-color="white" stop-opacity="0"/>
</linearGradient>
</defs>
</svg>
